<?xml version="1.0" encoding="UTF-8" standalone="no"?>
<svg
   xmlns:dc="http://purl.org/dc/elements/1.1/"
   xmlns:cc="http://creativecommons.org/ns#"
   xmlns:rdf="http://www.w3.org/1999/02/22-rdf-syntax-ns#"
   xmlns:svg="http://www.w3.org/2000/svg"
   xmlns="http://www.w3.org/2000/svg"
   viewBox="0 0 346.25 347.5"
   height="347.5"
   width="346.25"
   xml:space="preserve"
   version="1.1"
   id="svg2"><metadata
     id="metadata8"><rdf:RDF><cc:Work
         rdf:about=""><dc:format>image/svg+xml</dc:format><dc:type
           rdf:resource="http://purl.org/dc/dcmitype/StillImage" /></cc:Work></rdf:RDF></metadata><defs
     id="defs6" /><g
     transform="matrix(1.25,0,0,-1.25,0,347.5)"
     id="g10"><g
       transform="scale(0.1,0.1)"
       id="g12"><path
         id="path14"
         style="fill:#feefc3;fill-opacity:1;fill-rule:nonzero;stroke:none"
         d="m 0,2780 10,0 C 10,1855.7 10.1016,931.5 9.89844,7.19922 L 9.10156,0 0,0 0,2780" /><path
         id="path16"
         style="fill:#fbc111;fill-opacity:1;fill-rule:nonzero;stroke:none"
         d="m 10,2780 2760,0 0,-16.7 c -261.5,-257.3 -518.3,-519.5 -780,-776.6 -131.8,136.1 -321.5,208 -509.5,209.9 -233.6,6.1 -460.4,-134.3 -564.699,-342.4 -22.699,-41.7 -34.903,-87.8 -52.801,-131.5 -2,-2.6 -6,-7.7 -8,-10.2 7.5,-7.9 15.102,-15.6 22.801,-23.4 -1.699,-5.2 -5,-15.8 -6.699,-21.1 -93.602,3.1 -187.301,1.9 -280.903,4.8 -55.898,5.2 -110.301,-36.2 -118.301,-92 -14.796,-279.7 98.204,-568.1 314.5,-749.8 5.903,-10.199 11.903,-20.301 18,-30.398 C 598.699,591.301 389.5,385.5 182.699,177.301 124.301,121.5 69.6992,61.6992 9.89844,7.19922 10.1016,931.5 10,1855.7 10,2780" /><path
         id="path18"
         style="fill:#fbb116;fill-opacity:1;fill-rule:nonzero;stroke:none"
         d="m 1990,1986.7 c 261.7,257.1 518.5,519.3 780,776.6 l 0,-1386.2 c -142.2,136.5 -275.1,283.5 -427.9,408 2.5,6.1 4.9,12.2 7.4,18.2 -91.8,26.5 -185.6,48.4 -275,82.2 -28.4,33.5 -52.1,71 -84.5,101.2" /><path
         id="path20"
         style="fill:#ffffff;fill-opacity:1;fill-rule:nonzero;stroke:none"
         d="m 915.801,1854.2 c 104.299,208.1 331.099,348.5 564.699,342.4 188,-1.9 377.7,-73.8 509.5,-209.9 32.4,-30.2 56.1,-67.7 84.5,-101.2 89.4,-33.8 183.2,-55.7 275,-82.2 -2.5,-6 -4.9,-12.1 -7.4,-18.2 -40.1,-91.7 -80.7,-183.3 -121.4,-274.9 -13.8,-28.2 -11.5,-60.4 -14.7,-90.8 -16.3,-187.7 -85.5,-373.1 -208.8,-517.002 -111.5,-131.796 -267.7,-224.597 -436.5,-260.597 -269,-58.301 -563.501,11 -774.302,189.199 -216.296,181.7 -329.296,470.1 -314.5,749.8 8,55.8 62.403,97.2 118.301,92 93.602,-2.9 187.301,-1.7 280.903,-4.8 266.398,-2.3 532.698,-7.4 798.998,-10.4 45.6,1.9 99.1,1.8 131.5,-35.9 38.8,-41 29.5,-101.6 22.5,-152.4 -24.4,-156.8 -109,-312.8 -251.1,-391.4 -111.1,-63 -246.5,-63.1 -367.8,-33.6 -102.4,25.1 -195.9,87.8 -253.802,176.5 -29.597,46.5 -52.5,96.9 -79.5,144.9 81.704,-7.3 163.902,1.4 245.502,-6.8 71.7,-69 156.4,-149.2 264.3,-137.6 103.7,10.9 167.9,106.4 207.7,193.4 -298.3,4.9 -596.701,6.8 -895.002,13.4 C 728.102,1257.4 804.602,1084.7 946.199,976.801 1071,879.102 1232.2,834.5 1389.5,838 c 148.9,4.5 296.8,63 403.2,168.1 119.4,115.4 182.7,279.4 195.7,443 3.5,36.6 -0.1,74.8 14.1,109.4 13.2,34.8 30.6,67.8 48.1,100.6 -34.7,12.9 -70.8,22.8 -104.2,39.1 -33.2,16.4 -47,53.1 -68.1,81.1 -84,118.2 -226.6,185.4 -369.3,194.7 -104.1,9.9 -210.5,-25.5 -289.3,-93.7 -56.5,-46.8 -98.4,-108.7 -128.7,-175.1 -69.4,-3 -138.699,6.7 -207.898,0.2 -6.801,5.7 -13.5,11.4 -20.102,17.3 17.898,43.7 30.102,89.8 52.801,131.5" /><path
         id="path22"
         style="fill:#f89f1c;fill-opacity:1;fill-rule:nonzero;stroke:none"
         d="m 1219.7,1880.3 c 78.8,68.2 185.2,103.6 289.3,93.7 142.7,-9.3 285.3,-76.5 369.3,-194.7 21.1,-28 34.9,-64.7 68.1,-81.1 33.4,-16.3 69.5,-26.2 104.2,-39.1 -17.5,-32.8 -34.9,-65.8 -48.1,-100.6 -14.2,-34.6 -10.6,-72.8 -14.1,-109.4 -13,-163.6 -76.3,-327.6 -195.7,-443 C 1686.3,901 1538.4,842.5 1389.5,838 1232.2,834.5 1071,879.102 946.199,976.801 804.602,1084.7 728.102,1257.4 694.398,1428.1 c 298.301,-6.6 596.702,-8.5 895.002,-13.4 -39.8,-87 -104,-182.5 -207.7,-193.4 -107.9,-11.6 -192.6,68.6 -264.3,137.6 -81.6,8.2 -163.798,-0.5 -245.502,6.8 27,-48 49.903,-98.4 79.5,-144.9 57.902,-88.7 151.402,-151.4 253.802,-176.5 121.3,-29.5 256.7,-29.4 367.8,33.6 142.1,78.6 226.7,234.6 251.1,391.4 7,50.8 16.3,111.4 -22.5,152.4 -32.4,37.7 -85.9,37.8 -131.5,35.9 -266.3,3 -532.6,8.1 -798.998,10.4 1.699,5.3 5,15.9 6.699,21.1 -7.699,7.8 -15.301,15.5 -22.801,23.4 2,2.5 6,7.6 8,10.2 6.602,-5.9 13.301,-11.6 20.102,-17.3 69.199,6.5 138.498,-3.2 207.898,-0.2 30.3,66.4 72.2,128.3 128.7,175.1" /><path
         id="path24"
         style="fill:#f8a01c;fill-opacity:1;fill-rule:nonzero;stroke:none"
         d="m 2342.1,1785.1 c 152.8,-124.5 285.7,-271.5 427.9,-408 L 2770,0 1623,0 C 1499.8,124.301 1379.6,252.301 1247.6,367.301 1161,454.301 1074.1,541 986.5,627 920.801,679.398 864.699,742.301 804.398,800.602 798.301,810.699 792.301,820.801 786.398,831 997.199,652.801 1291.7,583.5 1560.7,641.801 c 168.8,36 325,128.801 436.5,260.597 123.3,143.902 192.5,329.302 208.8,517.002 3.2,30.4 0.9,62.6 14.7,90.8 40.7,91.6 81.3,183.2 121.4,274.9" /><path
         id="path26"
         style="fill:#faaf18;fill-opacity:1;fill-rule:nonzero;stroke:none"
         d="M 804.398,800.602 C 864.699,742.301 920.801,679.398 986.5,627 1074.1,541 1161,454.301 1247.6,367.301 1379.6,252.301 1499.8,124.301 1623,0 L 9.10156,0 9.89844,7.19922 C 69.6992,61.6992 124.301,121.5 182.699,177.301 c 206.801,208.199 416,414 621.699,623.301" /></g></g></svg>